PathFileType	4	(X/Y/Z)	C:/Users/beibeiliu/ov580/test_trc/User2\sequence.31_training_dense_left.trc
DataRate	CameraRate	NumFrames	NumMarkers	Units	OrigDataRate	OrigDataStartFrame	OrigNumFrames
120	120	9	19	mm	120	1	83
Frame#	Time	ThumbCMC			ThumbMCP			ThumbIP			ThumbTip			IndexMCP			IndexPIP			IndexTip			MiddleMCP			MiddlePIP			MiddleTip			RingMCP			RingPIP			RingTip			PinkyMCP			PinkyPIP			PinkyTip			BackHand1			BackHand2			BackHand3	
		X0	Y0	Z0	X1	Y1	Z1	X2	Y2	Z2	X3	Y3	Z3	X4	Y4	Z4	X5	Y5	Z5	X6	Y6	Z6	X7	Y7	Z7	X8	Y8	Z8	X9	Y9	Z9	X10	Y10	Z10	X11	Y11	Z11	X12	Y12	Z12	X13	Y13	Z13	X14	Y14	Z14	X15	Y15	Z15	X16	Y16	Z16	X17	Y17	Z17	X18	Y18	Z18	
0	0	-245.848	75.8452	-18.9622	-232.486	71.517	-58.9375	-233.673	45.6633	-89.1368	-245.447	11.4585	-83.0405	-294.678	64.0614	-83.9432	-302.544	67.8101	-110.206	-312.326	67.8198	-141.809	-298.257	43.452	-93.2398	-306.334	43.1288	-123.746	-313.458	41.304	-154.272	-291.37	23.2187	-92.1782	-296.744	22.2227	-114.981	-301.792	22.9703	-143.53	-275.594	1.78137	-80.7038	-279.232	3.71143	-102.019	-291.233	9.05554	-123.966	-283.796	16.9559	-36.1206	-278.528	15.1452	1.31829	-284.809	50.8484	-17.2524	
1	0.00833333	-219.08	66.8406	-17.0807	-209.356	61.5528	-56.1347	-223.364	38.4303	-80.6206	-244.955	13.791	-79.0038	-265.898	79.8483	-82.8668	-272.346	86.3258	-111.466	-278.216	89.7543	-140.648	-276.924	64.4584	-94.0408	-281.767	67.2612	-119.42	-290.202	69.1987	-151.924	-282.243	38.4564	-89.2028	-283.546	45.1932	-113.901	-289.227	49.9041	-146.459	-274.751	16.1709	-74.8977	-281.304	20.4316	-104.959	-288.861	26.577	-121.57	-276.902	29.6364	-30.7622	-275.029	30.2113	1.19606	-262.297	63.8289	-16.4953	
2	0.0166667	-199.907	53.6132	-13.481	-192.541	46.3022	-51.4529	-217.286	30.2738	-82.5283	-240.249	17.067	-77.3108	-236.198	89.3534	-83.6732	-241.792	93.0463	-106.889	-243.039	102.017	-133.718	-257.4	73.4842	-88.0888	-259.116	80.258	-117.736	-263.388	87.6191	-146.781	-266.826	56.1274	-83.7102	-270.149	61.2177	-115.393	-273.37	66.0323	-142.765	-274.91	30.179	-73.5677	-277.264	34.2227	-100.798	-279.59	43.1198	-120.942	-269.859	43.0369	-28.1425	-264.713	41.5232	3.49765	-242.248	66.4133	-11.2193	
3	0.025	-188.3	44.9709	-17.084	-186.788	33.6028	-51.1044	-211.052	22.8483	-78.4778	-237.519	15.0054	-76.936	-217.951	82.5046	-83.1844	-216.437	92.0303	-109.806	-222.213	94.0314	-133.164	-238.427	74.6029	-85.891	-240.742	81.1826	-119.102	-244.777	87.3018	-147.299	-254.573	60.6356	-85.0954	-257.815	63.9759	-112.962	-256.985	69.2164	-136.661	-264.989	37.086	-69.7921	-267.192	42.7609	-97.7202	-271.898	50.1679	-118.737	-258.692	49.8662	-29.4539	-259.131	46.0806	4.16156	-226.706	66.8936	-13.0531	
4	0.0333333	-184.212	31.9298	-12.0295	-180.927	20.6797	-51.223	-203.684	9.74732	-78.3997	-236.135	6.85697	-75.2221	-201.877	70.8955	-81.9063	-201.977	75.932	-107.896	-200.96	80.1472	-136.121	-224.506	67.997	-92.6055	-224.506	70.4116	-123.518	-227.45	74.3565	-148.835	-248.944	50.7822	-85.9261	-246.098	55.7688	-115.617	-247.027	57.1451	-143.518	-263.079	31.6961	-72.88	-258.119	35.127	-96.8621	-262.268	41.3138	-120.906	-251.569	48.1771	-28.9585	-246.262	48.3837	2.63275	-216.859	59.571	-14.5967	
5	0.0416667	-176.728	24.5369	-14.0921	-171.614	7.82995	-46.3066	-198.296	-5.0501	-72.2518	-227.757	-9.05108	-69.6432	-190.166	52.0186	-84.437	-192.191	51.8695	-116.063	-187.716	52.5162	-140.37	-217.057	45.2538	-95.8363	-213.135	45.5421	-124.458	-216.682	44.3932	-154.35	-239.028	31.7896	-88.3338	-237.454	31.1162	-118.148	-236.043	29.193	-143.106	-250.992	16.3722	-72.2736	-247.366	14.5094	-95.5774	-249.171	14.6686	-122.176	-239.799	37.7548	-27.9933	-240.879	39.9898	2.03938	-205.786	51.5242	-16.2349	
6	0.05	-165.079	24.0662	-11.3271	-157.228	0.805679	-41.9667	-178.097	-19.7233	-61.0471	-207.723	-25.4561	-60.8223	-181.955	34.9127	-91.0443	-174.77	32.9653	-112.778	-173.392	27.5187	-140.855	-204.322	23.777	-97.9581	-197.606	20.4448	-122.937	-197.215	15.815	-156.196	-219.772	11.0533	-86.5789	-218.771	3.89272	-114.941	-213.174	0.328198	-145.634	-236.245	-7.13639	-71.9297	-230.406	-12.0508	-99.5845	-228.976	-14.0032	-121.556	-228.343	22.7646	-29.9014	-235.479	30.1243	0.444051	-203.583	45.1066	-18.0052	
7	0.0583333	-160.144	32.8405	-4.60911	-143.281	5.87674	-32.5188	-159.816	-23.374	-56.9071	-187.525	-36.1282	-55.4406	-171.418	29.2857	-89.4579	-160.655	23.5712	-115.717	-157.354	14.5798	-137.899	-188.565	11.668	-96.3648	-180.778	4.23512	-121.252	-172.552	-2.37251	-154.616	-202.697	-4.13786	-85.9121	-199.262	-16.9126	-111.673	-190.94	-23.2481	-136.89	-215.667	-23.1501	-70.5863	-207.374	-29.8868	-90.7884	-202.793	-36.093	-118.316	-223.373	9.35964	-30.8048	-230.154	21.3297	-4.12305	-200.138	44.4091	-22.2207	
8	0.0666667	-164.117	42.5453	-6.11388	-141.77	18.146	-28.9018	-148.074	-13.0241	-46.0084	-173.442	-32.1279	-46.1149	-169.36	30.9495	-86.163	-155.946	23.4015	-113.996	-142.518	16.4782	-138.016	-181.539	10.2756	-91.0669	-169.395	-1.51181	-121.129	-158.329	-8.24425	-147.192	-191.004	-11.767	-83.8525	-182.097	-22.9362	-106.28	-167.461	-28.4726	-133.026	-199.633	-29.8488	-60.8026	-188.472	-35.8146	-83.7551	-182.03	-43.8012	-109.446	-214.537	4.35578	-31.4478	-229.031	14.4695	-1.8072	-204.37	41.0523	-22.2403	
